<?xml version="1.0" encoding="UTF-8"?>
<!-- This file is generated by npm run build:icons -->
<svg xmlns="http://www.w3.org/2000/svg" xmlns:xlink="http://www.w3.org/1999/xlink" width="0" height="0">
<defs>
<symbol viewBox="0 0 24 24" fill="none" id="appointment">
<path fill-rule="evenodd" clip-rule="evenodd" d="M4.33058 11.6437C3.37671 8.66561 4.49148 5.26174 7.618 4.25453C9.26259 3.72382 11.0779 4.03673 12.4451 5.06527C13.7386 4.06518 15.6205 3.72737 17.2633 4.25453C20.3899 5.26174 21.5117 8.66561 20.5588 11.6437C19.0742 16.3641 12.4451 20 12.4451 20C12.4451 20 5.86494 16.4192 4.33058 11.6437Z" stroke="currentColor" stroke-width="1.5" stroke-linecap="round" stroke-linejoin="round"></path>
<path d="M16.0011 7.2892C16.9523 7.59678 17.6244 8.44575 17.7053 9.44229" stroke="currentColor" stroke-width="1.5" stroke-linecap="round" stroke-linejoin="round"></path>
</symbol>
<symbol viewBox="0 0 24 24" fill="none" id="arrow-left">
<path d="M14.7825 19.9999C14.5833 20.0006 14.3865 19.9566 14.2065 19.8713C14.0266 19.7859 13.8681 19.6613 13.7426 19.5066L7.30328 12.8407C7.1072 12.6021 7 12.3029 7 11.9941C7 11.6853 7.1072 11.3861 7.30328 11.1475L13.9692 4.48162C14.1955 4.20936 14.5207 4.03814 14.8732 4.00564C15.2257 3.97314 15.5768 4.08201 15.849 4.3083C16.1213 4.5346 16.2925 4.85978 16.325 5.2123C16.3575 5.56483 16.2486 5.91584 16.0223 6.1881L10.063 12.0008L15.8223 17.8135C15.9854 18.0092 16.0889 18.2475 16.1208 18.5002C16.1526 18.7529 16.1114 19.0094 16.002 19.2394C15.8926 19.4694 15.7196 19.6633 15.5035 19.7981C15.2874 19.9328 15.0371 20.0029 14.7825 19.9999Z" fill="currentColor"></path>
</symbol>
<symbol viewBox="0 0 24 24" fill="none" id="eye-off">
<g clip-path="url(#clip0_96_49)">
<path d="M4.70994 3.29C4.6167 3.19676 4.50601 3.1228 4.38419 3.07234C4.26237 3.02188 4.1318 2.99591 3.99994 2.99591C3.86808 2.99591 3.73751 3.02188 3.61569 3.07234C3.49387 3.1228 3.38318 3.19676 3.28994 3.29C3.10164 3.47831 2.99585 3.7337 2.99585 4C2.99585 4.2663 3.10164 4.5217 3.28994 4.71L8.91994 10.34C8.56375 11.0026 8.43053 11.7624 8.54003 12.5067C8.64953 13.2509 8.99593 13.9401 9.52788 14.4721C10.0598 15.004 10.749 15.3504 11.4933 15.4599C12.2376 15.5694 12.9973 15.4362 13.6599 15.08L19.2899 20.71C19.3829 20.8037 19.4935 20.8781 19.6154 20.9289C19.7372 20.9797 19.8679 21.0058 19.9999 21.0058C20.132 21.0058 20.2627 20.9797 20.3845 20.9289C20.5064 20.8781 20.617 20.8037 20.7099 20.71C20.8037 20.617 20.8781 20.5064 20.9288 20.3846C20.9796 20.2627 21.0057 20.132 21.0057 20C21.0057 19.868 20.9796 19.7373 20.9288 19.6154C20.8781 19.4936 20.8037 19.383 20.7099 19.29L4.70994 3.29ZM11.9999 13.5C11.6021 13.5 11.2206 13.342 10.9393 13.0607C10.658 12.7794 10.4999 12.3978 10.4999 12V11.93L12.0599 13.49L11.9999 13.5Z" fill="currentColor"></path>
<path d="M12.2199 17C7.91995 17.1 5.09995 13.41 4.21995 12C4.84642 11.0007 5.59931 10.0865 6.45995 9.27999L4.99995 7.87C3.87127 8.93347 2.90435 10.1564 2.12995 11.5C2.04218 11.652 1.99597 11.8245 1.99597 12C1.99597 12.1755 2.04218 12.348 2.12995 12.5C2.75995 13.59 6.12995 19 12.0199 19H12.2699C13.3775 18.9671 14.4707 18.7404 15.4999 18.33L13.9199 16.75C13.3643 16.8962 12.7941 16.98 12.2199 17Z" fill="currentColor"></path>
<path d="M21.87 11.5C21.23 10.39 17.7 4.81999 11.73 4.99999C10.6225 5.03285 9.52924 5.25961 8.5 5.66999L10.08 7.24999C10.6356 7.10382 11.2058 7.01997 11.78 6.99999C16.07 6.88999 18.89 10.59 19.78 12C19.1381 13.0023 18.3682 13.9167 17.49 14.72L19 16.13C20.1428 15.0693 21.1234 13.8462 21.91 12.5C21.9918 12.3445 22.0311 12.1702 22.0241 11.9946C22.0171 11.8191 21.9639 11.6485 21.87 11.5V11.5Z" fill="currentColor"></path>
</g>
<defs>
<clipPath id="clip0_96_49">
<rect width="24" height="24" fill="white"></rect>
</clipPath>
</defs>
</symbol>
<symbol viewBox="0 0 24 24" fill="none" id="eye-on">
<path fill-rule="evenodd" clip-rule="evenodd" d="M15.414 12.302C15.414 14.048 13.998 15.464 12.252 15.464C10.506 15.464 9.08997 14.048 9.08997 12.302C9.08997 10.555 10.506 9.14 12.252 9.14C13.998 9.14 15.414 10.555 15.414 12.302Z" stroke="currentColor" stroke-width="1.5" stroke-linecap="round" stroke-linejoin="round"></path>
<path fill-rule="evenodd" clip-rule="evenodd" d="M3 12.302C3 15.582 7.142 19.604 12.252 19.604C17.361 19.604 21.504 15.585 21.504 12.302C21.504 9.019 17.361 5 12.252 5C7.142 5 3 9.022 3 12.302Z" stroke="currentColor" stroke-width="1.5" stroke-linecap="round" stroke-linejoin="round"></path>
</symbol>
<symbol viewBox="0 0 24 24" fill="none" id="map">
<path d="M12.4167 4C8.86917 4 6 6.86917 6 10.4167C6 15.2292 12.4167 20.3333 12.4167 20.3333C12.4167 20.3333 18.8333 15.2292 18.8333 10.4167C18.8333 6.86917 15.9642 4 12.4167 4ZM12.4167 12.7083C11.1517 12.7083 10.125 11.6817 10.125 10.4167C10.125 9.15167 11.1517 8.125 12.4167 8.125C13.6817 8.125 14.7083 9.15167 14.7083 10.4167C14.7083 11.6817 13.6817 12.7083 12.4167 12.7083Z" fill="currentColor"></path>
</symbol>
</defs>
</svg>
