<svg width="24" height="24" viewBox="0 0 24 24" fill="none" xmlns="http://www.w3.org/2000/svg">
<path d="M14.7825 19.9999C14.5833 20.0006 14.3865 19.9566 14.2065 19.8713C14.0266 19.7859 13.8681 19.6613 13.7426 19.5066L7.30328 12.8407C7.1072 12.6021 7 12.3029 7 11.9941C7 11.6853 7.1072 11.3861 7.30328 11.1475L13.9692 4.48162C14.1955 4.20936 14.5207 4.03814 14.8732 4.00564C15.2257 3.97314 15.5768 4.08201 15.849 4.3083C16.1213 4.5346 16.2925 4.85978 16.325 5.2123C16.3575 5.56483 16.2486 5.91584 16.0223 6.1881L10.063 12.0008L15.8223 17.8135C15.9854 18.0092 16.0889 18.2475 16.1208 18.5002C16.1526 18.7529 16.1114 19.0094 16.002 19.2394C15.8926 19.4694 15.7196 19.6633 15.5035 19.7981C15.2874 19.9328 15.0371 20.0029 14.7825 19.9999Z" fill="currentColor"/>
</svg>
